HIERARCHY
ROOT Hips
{
	OFFSET 0.000000 88.474243 0.000000
	CHANNELS 6 Xposition Yposition Zposition Zrotation Yrotation Xrotation 
	JOINT Hips_Spine
	{
		OFFSET 0.000000 0.000000 0.000000
		CHANNELS 3 Zrotation Yrotation Xrotation
		JOINT Spine
		{
			OFFSET 0.005100 8.711998 -0.691000
			CHANNELS 3 Zrotation Yrotation Xrotation
			JOINT Spine1
			{
				OFFSET -0.009200 8.660301 -1.275000
				CHANNELS 3 Zrotation Yrotation Xrotation
				JOINT Spine2
				{
					OFFSET 0.006300 9.852501 -1.857000
					CHANNELS 3 Zrotation Yrotation Xrotation
					JOINT Spine2_Neck
					{
						OFFSET 0.000000 0.000000 0.000000
						CHANNELS 3 Zrotation Yrotation Xrotation
						JOINT Neck
						{
							OFFSET 0.016300 11.420799 -0.263300
							CHANNELS 3 Zrotation Yrotation Xrotation
							End Site #name: Head
							{
								OFFSET -0.019200 9.262405 2.362500
							}
						}
					}
					JOINT Spine2_LeftShoulder
					{
						OFFSET 0.000000 0.000000 0.000000
						CHANNELS 3 Zrotation Yrotation Xrotation
						JOINT LeftShoulder
						{
							OFFSET 5.616900 6.732201 -0.345700
							CHANNELS 3 Zrotation Yrotation Xrotation
							JOINT LeftArm
							{
								OFFSET 10.664888 -0.183372 -2.440700
								CHANNELS 3 Zrotation Yrotation Xrotation
								JOINT LeftForeArm
								{
									OFFSET 27.459126 0.000000 0.000000
									CHANNELS 3 Zrotation Yrotation Xrotation
									End Site #name: LeftHand
									{
										OFFSET 21.306858 0.000000 0.000000
									}
								}
							}
						}
					}
					JOINT Spine2_RightShoulder
					{
						OFFSET 0.000000 0.000000 0.000000
						CHANNELS 3 Zrotation Yrotation Xrotation
						JOINT RightShoulder
						{
							OFFSET -5.580300 6.737503 -0.344400
							CHANNELS 3 Zrotation Yrotation Xrotation
							JOINT RightArm
							{
								OFFSET -10.679335 -0.188484 -2.383900
								CHANNELS 3 Zrotation Yrotation Xrotation
								JOINT RightForeArm
								{
									OFFSET -27.503529 0.000000 0.000000
									CHANNELS 3 Zrotation Yrotation Xrotation
									End Site #name: RightHand
									{
										OFFSET -21.306808 0.000000 0.000000
									}
								}
							}
						}
					}
				}
			}
		}
	}
	JOINT Hips_LeftUpLeg
	{
		OFFSET 0.000000 0.000000 0.000000
		CHANNELS 3 Zrotation Yrotation Xrotation
		JOINT LeftUpLeg
		{
			OFFSET 6.857700 -6.739601 0.312100
			CHANNELS 3 Zrotation Yrotation Xrotation
			JOINT LeftLeg
			{
				OFFSET -0.367590 -34.731552 -4.572400
				CHANNELS 3 Zrotation Yrotation Xrotation
				End Site #name: LeftFoot
				{
					OFFSET 0.367590 -34.656704 -6.067400
				}
			}
		}
	}
	JOINT Hips_RightUpLeg
	{
		OFFSET 0.000000 0.000000 0.000000
		CHANNELS 3 Zrotation Yrotation Xrotation
		JOINT RightUpLeg
		{
			OFFSET -6.876100 -6.733299 0.301000
			CHANNELS 3 Zrotation Yrotation Xrotation
			JOINT RightLeg
			{
				OFFSET 0.347353 -34.795158 -4.515900
				CHANNELS 3 Zrotation Yrotation Xrotation
				End Site #name: RightFoot
				{
					OFFSET -0.347353 -34.589367 -6.070300
				}
			}
		}
	}
}
MOTION
Frames: 10
Frame Time: 0.041667
4.831354 1.081826 1.504958 -4.039058 -9.772723 -0.785414 0.000000 0.000000 0.000000 -0.291440 0.477911 4.066384 -0.795164 1.232372 8.351135 0.000000 0.000000 0.000000 -0.836154 1.182548 8.225537 1.237499 -2.350291 3.040555 -0.782915 1.278385 8.431082 3.127664 0.940017 0.346685 -74.915553 -10.813080 27.718327 179.782282 -86.746698 179.947930 -0.788604 1.206141 8.237573 -4.191450 -0.992011 1.183365 78.966982 -9.322823 4.348978 -175.233732 84.265657 -175.533126 -0.000000 -0.000000 -0.000000 1.172346 1.089989 -19.979616 -0.979779 0.459770 28.443217 0.000000 -0.000000 -0.000000 -7.733530 0.609668 -15.889512 0.196610 -0.513024 18.610566 
4.996575 1.122347 1.538426 -3.993257 -9.891350 -0.820693 -0.000000 0.000000 0.000000 -0.300674 0.475707 4.036337 -0.769343 1.213952 8.278131 0.000000 0.000000 0.000000 -0.816777 1.168920 8.152467 0.992258 -2.611985 3.131303 -0.766763 1.271915 8.347032 3.129321 0.908075 0.358493 -74.933601 -10.497520 27.435654 179.363853 -86.699559 -179.636654 -0.772557 1.189772 8.177921 -4.160243 -0.958232 1.177869 79.126006 -9.439299 4.120516 -175.089455 84.330323 -175.410118 -0.000000 -0.000000 -0.000000 1.006311 1.105424 -19.755722 -0.968110 0.441736 28.075639 0.000000 -0.000000 -0.000000 -7.913133 0.791219 -15.772694 0.162017 -0.519213 18.256994 
5.149548 1.157148 1.561229 -3.948955 -9.976822 -0.854339 -0.000000 0.000000 -0.000000 -0.314321 0.479434 3.977979 -0.744814 1.201544 8.209717 0.000000 0.000000 0.000000 -0.797115 1.156216 8.072995 0.870913 -2.864618 3.248181 -0.750900 1.267165 8.267127 3.130595 0.885333 0.371673 -74.957221 -10.170260 27.161167 179.093219 -86.638638 -179.365661 -0.758261 1.178712 8.125930 -4.130523 -0.914837 1.177556 79.245754 -9.532684 3.931165 -174.905451 84.435310 -175.251195 -0.000000 -0.000000 -0.000000 0.848079 1.143901 -19.544541 -0.963031 0.427183 27.738317 0.000000 -0.000000 -0.000000 -8.074608 0.916430 -15.633965 0.182481 -0.547003 17.972210 
5.288784 1.187023 1.574281 -3.913040 -10.051523 -0.867858 -0.000000 0.000000 -0.000000 -0.326036 0.479784 3.923566 -0.721705 1.196261 8.152936 0.000000 0.000000 0.000000 -0.777369 1.148600 7.997964 0.799496 -2.976953 3.356719 -0.736099 1.264623 8.195290 3.133247 0.865179 0.383635 -74.992015 -9.850440 26.890346 178.921508 -86.571837 -179.191053 -0.744951 1.172268 8.083773 -4.087104 -0.886345 1.172039 79.338083 -9.625057 3.761474 -174.745581 84.499907 -175.113723 -0.000000 -0.000000 -0.000000 0.695837 1.176257 -19.346007 -0.959076 0.418617 27.428251 0.000000 -0.000000 -0.000000 -8.207238 1.020300 -15.509886 0.207767 -0.580313 17.742061 
5.411687 1.212147 1.579541 -3.887443 -10.174140 -0.846553 -0.000000 0.000000 -0.000000 -0.333710 0.482614 3.874121 -0.700855 1.195419 8.100271 0.000000 0.000000 0.000000 -0.758351 1.146214 7.932457 0.751173 -3.062084 3.444190 -0.721564 1.264499 8.131281 3.137819 0.860384 0.391138 -75.032734 -9.524436 26.630432 178.816416 -86.530437 -179.085358 -0.731313 1.170448 8.044341 -4.035858 -0.865846 1.164353 79.386407 -9.688233 3.625597 -174.562336 84.594649 -174.951450 0.000000 -0.000000 -0.000000 0.551443 1.197788 -19.172601 -0.951567 0.414607 27.160560 0.000000 -0.000000 -0.000000 -8.313286 1.109972 -15.411319 0.215548 -0.603539 17.577924 
5.511549 1.233174 1.579550 -3.862549 -10.319118 -0.802885 -0.000000 0.000000 -0.000000 -0.337180 0.486437 3.821531 -0.681431 1.196595 8.051049 0.000000 0.000000 0.000000 -0.740201 1.147594 7.876868 0.729673 -3.113884 3.499431 -0.708267 1.265844 8.075363 3.140677 0.861265 0.395427 -75.078727 -9.236379 26.394066 178.684968 -86.548251 -178.956433 -0.719450 1.173861 8.010744 -3.986134 -0.855969 1.153233 79.404602 -9.732531 3.520043 -174.396315 84.664333 -174.803843 0.000000 -0.000000 -0.000000 0.417477 1.200385 -19.036356 -0.939567 0.408612 26.954298 0.000000 -0.000000 -0.000000 -8.396651 1.178382 -15.343077 0.206152 -0.620143 17.483717 
5.582460 1.250994 1.576775 -3.838083 -10.455742 -0.752629 -0.000000 -0.000000 -0.000000 -0.339831 0.490186 3.766847 -0.664671 1.198246 8.001083 0.000000 0.000000 0.000000 -0.722309 1.152577 7.824628 0.728079 -3.135367 3.523206 -0.694982 1.268574 8.028190 3.138021 0.867581 0.395038 -75.125123 -8.986512 26.178846 178.496394 -86.639150 -178.772416 -0.706976 1.181193 7.979981 -3.939826 -0.847067 1.141702 79.384369 -9.740156 3.467223 -174.270183 84.707812 -174.690019 0.000000 -0.000000 -0.000000 0.286022 1.202416 -18.927498 -0.928722 0.402954 26.840256 0.000000 -0.000000 -0.000000 -8.478084 1.212349 -15.298042 0.195277 -0.624268 17.442659 
5.619479 1.265508 1.572182 -3.822763 -10.566882 -0.701245 -0.000000 -0.000000 -0.000000 -0.338690 0.491922 3.705541 -0.650338 1.201380 7.955831 0.000000 0.000000 0.000000 -0.703535 1.159890 7.772607 0.744711 -3.127468 3.510159 -0.682048 1.272164 7.987246 3.130406 0.871419 0.395593 -75.162455 -8.778345 25.992901 178.220687 -86.767227 -178.502841 -0.696409 1.191828 7.950870 -3.900739 -0.837241 1.129376 79.338974 -9.743470 3.430694 -174.178532 84.699573 -174.605697 0.000000 -0.000000 -0.000000 0.159619 1.207321 -18.839766 -0.922910 0.396945 26.792856 0.000000 -0.000000 -0.000000 -8.567368 1.208870 -15.262600 0.185846 -0.618851 17.436517 
5.616680 1.276991 1.566730 -3.816041 -10.652432 -0.654082 -0.000000 -0.000000 -0.000000 -0.334176 0.494615 3.646477 -0.637735 1.205492 7.911675 0.000000 0.000000 0.000000 -0.683720 1.169512 7.721136 0.782780 -3.091145 3.460635 -0.669177 1.275872 7.952445 3.126100 0.882795 0.394930 -75.201410 -8.612971 25.803219 177.869635 -86.903386 -178.159457 -0.685763 1.204654 7.924968 -3.871777 -0.835025 1.113779 79.294057 -9.745673 3.419005 -174.136691 84.649466 -174.562909 0.000000 -0.000000 -0.000000 0.052569 1.230144 -18.775548 -0.917329 0.394531 26.818506 0.000000 -0.000000 -0.000000 -8.658195 1.182960 -15.244262 0.187537 -0.605124 17.480678 
5.567591 1.285347 1.560575 -3.762911 -10.702360 -0.615513 -0.000000 -0.000000 -0.000000 -0.327304 0.499944 3.595839 -0.627596 1.212396 7.874222 0.000000 0.000000 0.000000 -0.665778 1.181387 7.683923 0.833683 -3.036089 3.384515 -0.657679 1.279329 7.925944 3.131156 0.898650 0.396040 -75.231212 -8.470182 25.651307 177.440479 -87.050164 -177.735536 -0.675913 1.218003 7.907572 -3.863320 -0.841955 1.102995 79.231408 -9.791040 3.407250 -174.113487 84.576859 -174.536216 0.000000 -0.000000 -0.000000 -0.034919 1.258178 -18.726744 -0.912744 0.399623 26.857044 -0.000000 -0.000000 -0.000000 -8.730248 1.142385 -15.241919 0.200238 -0.589084 17.558373 
